<?xml version="1.0" encoding="iso-8859-1"?>
<!-- Generator: Adobe Illustrator 16.0.0, SVG Export Plug-In . SVG Version: 6.00 Build 0)  -->
<!DOCTYPE svg PUBLIC "-//W3C//DTD SVG 1.1//EN" "http://www.w3.org/Graphics/SVG/1.1/DTD/svg11.dtd">
<svg version="1.1" xmlns="http://www.w3.org/2000/svg" xmlns:xlink="http://www.w3.org/1999/xlink" x="0px" y="0px"
	 width="24.013px" height="25.43px" viewBox="0 0 24.013 25.43" style="enable-background:new 0 0 24.013 25.43;"
	 xml:space="preserve">
<g id="c11_book">
	<path style="fill:#ffffff;" d="M0,1.497v22.221c0,0.825,0.515,1.493,1.154,1.493h1.425V0H1.154C0.515,0,0,0.668,0,1.497z"/>
	<rect x="21.651" y="0" style="fill:#ffffff;" width="2.361" height="5.961"/>
	<rect x="21.651" y="6.611" style="fill:#ffffff;" width="2.361" height="5.957"/>
	<rect x="21.651" y="13.22" style="fill:#ffffff;" width="2.361" height="5.956"/>
	<polygon style="fill:#ffffff;" points="21.651,25.43 24.013,19.646 21.651,19.646 	"/>
	<path style="fill:#ffffff;" d="M12.003,6.489c-0.072,0.071-0.117,0.154-0.145,0.241l0.033,0.013
		C11.913,6.641,11.955,6.556,12.003,6.489z"/>
	<path style="fill:#ffffff;" d="M3.888,25.211h16.401V0.056H3.888V25.211z M10.122,9.661c-0.225-1.185-0.057-1.59-0.057-1.59
		c0.289-0.895,1.283-1.326,1.283-1.326c0.222-0.241,0.226-0.16,0.207-0.088c0.062-0.078,0.121-0.122,0.121-0.122
		c-0.059,0.062-0.102,0.124-0.132,0.185l0.109,0.056c0.065-0.106,0.136-0.172,0.136-0.172c-0.049,0.064-0.086,0.125-0.113,0.183
		l0.054,0.027c0.058-0.207,0.23-0.323,0.302-0.364c0.096-0.116,0.2-0.169,0.2-0.169c-0.099,0.086-0.159,0.187-0.197,0.298
		c0.093-0.134,0.251-0.208,0.251-0.208c0,0.24,0.252,0.453,0.377,0.544c-0.025-0.06-0.045-0.096-0.045-0.096
		c0.047,0.049,0.084,0.096,0.115,0.144c0.02,0.004,0.037,0.009,0.055,0.013c-0.051-0.071-0.092-0.114-0.092-0.114
		c0.049,0.043,0.09,0.083,0.125,0.122c0.043,0.01,0.084,0.018,0.123,0.03c-0.022-0.03-0.038-0.047-0.038-0.047
		c0.026,0.019,0.051,0.039,0.075,0.059c0.682,0.202,0.963,0.585,0.963,0.585c0.6,0.674,0.289,1.758,0.195,2.036
		c0.27-0.076,0.067,0.646,0.067,0.646c-0.033,0.208-0.12,0.299-0.174,0.337c-0.14,0.998-1.038,2.146-1.983,2.146
		c-0.822,0-1.729-1.092-1.855-2.146c-0.053-0.038-0.142-0.129-0.174-0.337C10.021,10.292,9.802,9.512,10.122,9.661z M8.074,13.811
		c0,0,0.214-0.288,0.714-0.48c0,0,1.708-0.518,1.824-0.96c0,0,1.263,3.265,2.925-0.01c0,0,0.007,0.298,0.851,0.595
		c0,0,1.586,0.501,1.846,1.076c0,0,0.863,1.971,0.663,3.719c0,0-0.009,0.145-0.298,0.326c0,0-1.994,0.836-4.731,0.778
		c0,0-2.667-0.134-4.366-0.894c0,0-0.241-0.058-0.251-0.614C7.25,17.347,7.337,14.906,8.074,13.811z"/>
</g>
<g id="Capa_1">
</g>
</svg>
